<svg viewBox="0 0 800 400" xmlns="http://www.w3.org/2000/svg">
  <defs>
    <linearGradient id="bg2" x1="0" y1="0" x2="1" y2="1">
      <stop offset="0%" stop-color="#1b2f57"/>
      <stop offset="100%" stop-color="#0f1d38"/>
    </linearGradient>
  </defs>
  <rect width="800" height="400" fill="url(#bg2)"/>
  <g opacity="0.9">
    <rect x="60" y="300" width="46" height="46" rx="8" fill="#ffffff" opacity="0.12"/>
    <rect x="112" y="300" width="46" height="46" rx="8" fill="#ffffff" opacity="0.2"/>
    <rect x="164" y="300" width="46" height="46" rx="8" fill="#ffd93d"/>
    <rect x="216" y="300" width="46" height="46" rx="8" fill="#ffffff" opacity="0.12"/>
    <rect x="268" y="300" width="46" height="46" rx="8" fill="#ffffff" opacity="0.2"/>
  </g>
  <rect x="600" y="60" width="130" height="130" rx="24" fill="#ffffff" transform="rotate(8 665 125)"/>
  <g transform="rotate(8 665 125)">
    <circle cx="633" cy="93" r="11" fill="#16294b"/>
    <circle cx="697" cy="93" r="11" fill="#16294b"/>
    <circle cx="665" cy="125" r="11" fill="#16294b"/>
    <circle cx="633" cy="157" r="11" fill="#16294b"/>
    <circle cx="697" cy="157" r="11" fill="#16294b"/>
  </g>
  <text x="380" y="150" font-family="'Poppins', Arial, sans-serif" font-size="46" font-weight="700" fill="#ffffff" text-anchor="middle">DailyDiceQuest</text>
  <text x="380" y="190" font-family="Arial, sans-serif" font-size="20" fill="#c7d2e8" text-anchor="middle">재사용형 데일리 이벤트 모듈 설계</text>

  <!-- Puzzle One 로고 배지 -->
  <g transform="translate(28,28)">
    <rect x="0" y="0" width="88" height="30" rx="15" fill="#ffffff"/>
    <text x="44" y="20" font-family="Arial, Helvetica, sans-serif" font-size="15" font-weight="800" fill="#16294b" text-anchor="middle">PUZZLE</text>
    <text x="122" y="21" font-family="Arial, Helvetica, sans-serif" font-size="21" font-weight="800" fill="#ffffff" text-anchor="middle">ONE</text>
  </g>
</svg>
